# xmcd CD database file
#
# Track frame offsets:
#	150
#	14796
#	26881
#	43942
#	58027
#	69040
#	80661
#	92969
#	105358
#	118738
#	133462
#	147867
#	160287
#	175283
#
# Disc length: 2469 seconds
#
# Revision: 0
# Processed by: cddbd v1.5.2PL0 Copyright (c) Steve Scherf et al.
# Submitted via: CDex 1.70beta2
#
DISCID=cd09a30e
DTITLE=Martin, Dean - Forever Cool
DYEAR=2007
DGENRE=Jazz
TTITLE0=Who's Got The Action
TTITLE1=Ain't That A Kick In The Head
TTITLE2=I've Grown Accustomed To Her Face
TTITLE3=Baby-O
TTITLE4=Who Was That Lady
TTITLE5=Please Don't Talk About Me When I'm Gone
TTITLE6=I Can't Believe That You're In Love With Me
TTITLE7=Just In Time
TTITLE8=Baby, It's Cold Outside
TTITLE9=King Of The Road
TTITLE10=You're Nobody 'Til Somebody Loves You
TTITLE11=Arrivederci Roma
TTITLE12=Everybody Loves Somebody
TTITLE13=Braham's Lullaby
EXTD=YEAR: 2007
EXTT0=
EXTT1=
EXTT2=
EXTT3=
EXTT4=
EXTT5=
EXTT6=
EXTT7=
EXTT8=
EXTT9=
EXTT10=
EXTT11=
EXTT12=
EXTT13=
PLAYORDER=
